<?xml version="1.0" encoding="UTF-8" standalone="no"?>
<!-- generated at drububu.com  -->

<svg
   xmlns:dc="http://purl.org/dc/elements/1.1/"
   xmlns:cc="http://creativecommons.org/ns#"
   xmlns:rdf="http://www.w3.org/1999/02/22-rdf-syntax-ns#"
   xmlns:svg="http://www.w3.org/2000/svg"
   xmlns="http://www.w3.org/2000/svg"
   xmlns:sodipodi="http://sodipodi.sourceforge.net/DTD/sodipodi-0.dtd"
   xmlns:inkscape="http://www.inkscape.org/namespaces/inkscape"
   version="1.1"
   preserveAspectRatio="xMinYMin meet"
   x="0px"
   y="0px"
   width="256"
   height="256"
   viewBox="0 0 256 256"
   id="svg2"
   inkscape:version="0.91 r13725"
   sodipodi:docname="logo.svg"
   inkscape:export-filename="/home/owner/Documents/life/logo.svg.png"
   inkscape:export-xdpi="1080"
   inkscape:export-ydpi="1080">
  <metadata
     id="metadata304">
    <rdf:RDF>
      <cc:Work
         rdf:about="">
        <dc:format>image/svg+xml</dc:format>
        <dc:type
           rdf:resource="http://purl.org/dc/dcmitype/StillImage" />
        <dc:title></dc:title>
      </cc:Work>
    </rdf:RDF>
  </metadata>
  <defs
     id="defs302">
    <marker
       inkscape:stockid="Tail"
       orient="auto"
       refY="0"
       refX="0"
       id="Tail"
       style="overflow:visible"
       inkscape:isstock="true">
      <g
         id="g8178"
         transform="scale(-1.2,-1.2)"
         style="fill:#000000;fill-opacity:0.25531915;stroke:#000000;stroke-opacity:0.25531915">
        <path
           id="path8180"
           d="M -3.8048674,-3.9585227 0.54352094,0"
           style="fill:#000000;fill-opacity:0.25531915;fill-rule:evenodd;stroke:#000000;stroke-width:0.80000001;stroke-linecap:round;stroke-opacity:0.25531915"
           inkscape:connector-curvature="0" />
        <path
           id="path8182"
           d="M -1.2866832,-3.9585227 3.0617053,0"
           style="fill:#000000;fill-opacity:0.25531915;fill-rule:evenodd;stroke:#000000;stroke-width:0.80000001;stroke-linecap:round;stroke-opacity:0.25531915"
           inkscape:connector-curvature="0" />
        <path
           id="path8184"
           d="M 1.3053582,-3.9585227 5.6537466,0"
           style="fill:#000000;fill-opacity:0.25531915;fill-rule:evenodd;stroke:#000000;stroke-width:0.80000001;stroke-linecap:round;stroke-opacity:0.25531915"
           inkscape:connector-curvature="0" />
        <path
           id="path8186"
           d="M -3.8048674,4.1775838 0.54352094,0.21974226"
           style="fill:#000000;fill-opacity:0.25531915;fill-rule:evenodd;stroke:#000000;stroke-width:0.80000001;stroke-linecap:round;stroke-opacity:0.25531915"
           inkscape:connector-curvature="0" />
        <path
           id="path8188"
           d="M -1.2866832,4.1775838 3.0617053,0.21974226"
           style="fill:#000000;fill-opacity:0.25531915;fill-rule:evenodd;stroke:#000000;stroke-width:0.80000001;stroke-linecap:round;stroke-opacity:0.25531915"
           inkscape:connector-curvature="0" />
        <path
           id="path8190"
           d="M 1.3053582,4.1775838 5.6537466,0.21974226"
           style="fill:#000000;fill-opacity:0.25531915;fill-rule:evenodd;stroke:#000000;stroke-width:0.80000001;stroke-linecap:round;stroke-opacity:0.25531915"
           inkscape:connector-curvature="0" />
      </g>
    </marker>
    <marker
       inkscape:stockid="Arrow1Lstart"
       orient="auto"
       refY="0"
       refX="0"
       id="Arrow1Lstart"
       style="overflow:visible"
       inkscape:isstock="true">
      <path
         id="path8142"
         d="M 0,0 5,-5 -12.5,0 5,5 0,0 Z"
         style="fill:#000000;fill-opacity:0.25531915;fill-rule:evenodd;stroke:#000000;stroke-width:1pt;stroke-opacity:0.25531915"
         transform="matrix(0.8,0,0,0.8,10,0)"
         inkscape:connector-curvature="0" />
    </marker>
    <inkscape:perspective
       sodipodi:type="inkscape:persp3d"
       inkscape:vp_x="0.375 : -4.7499999 : 1"
       inkscape:vp_y="0 : 1000 : 0"
       inkscape:vp_z="16.375 : -4.7499999 : 1"
       inkscape:persp3d-origin="8.375 : -7.4166666 : 1"
       id="perspective8092" />
  </defs>
  <sodipodi:namedview
     pagecolor="#ffffff"
     bordercolor="#666666"
     borderopacity="1"
     objecttolerance="10"
     gridtolerance="10"
     guidetolerance="10"
     inkscape:pageopacity="0"
     inkscape:pageshadow="2"
     inkscape:window-width="1762"
     inkscape:window-height="974"
     id="namedview300"
     showgrid="false"
     inkscape:zoom="1"
     inkscape:cx="169.51502"
     inkscape:cy="241.66995"
     inkscape:window-x="130"
     inkscape:window-y="569"
     inkscape:window-maximized="0"
     inkscape:current-layer="layer4"
     fit-margin-top="2"
     fit-margin-left="2"
     fit-margin-right="2"
     fit-margin-bottom="2" />
  <g
     inkscape:groupmode="layer"
     id="layer2"
     inkscape:label="Layer 2"
     style="display:inline"
     transform="translate(-0.42177737,241.30848)">
    <path
       style="fill:#66a2b1;fill-opacity:1"
       d="m 62.313294,-227.7997 -47.549933,48.47633 c -0.642747,16.12061 -0.179973,32.25522 -0.186201,48.38212 l 23.937975,23.64929 95.379315,0 0,24.120384 71.34819,0.470978 -0.23367,48.240762 -71.3016,0 0,24.120441 71.16192,0 0,0.28263 0.27962,-0.28263 0.0902,0 0,-0.0945 23.84509,-24.026482 0,-144.722293 -23.84484,0 0,72.36118 -47.68968,0 0,-72.36118 -23.65855,-0.47108 0,48.24078 c -31.85511,0.11705 -63.71098,0.0316 -95.565588,0.28267 l 0,-41.22137 28.967739,-30.95136 66.411569,0 0,-24.12039 -71.301622,0 -0.09321,-0.37689 z"
       id="path134-6"
       inkscape:connector-curvature="0" />
    <path
       sodipodi:type="star"
       style="opacity:1;fill:#999999;fill-opacity:1;stroke:none;stroke-linejoin:round;stroke-opacity:0.25531915"
       id="path8132-5"
       sodipodi:sides="5"
       sodipodi:cx="4.2736144"
       sodipodi:cy="11.795413"
       sodipodi:r1="0.63951153"
       sodipodi:r2="0.80497766"
       sodipodi:arg1="0.82451095"
       sodipodi:arg2="1.4528295"
       inkscape:flatsided="false"
       inkscape:rounded="0"
       inkscape:randomized="0"
       d="M 4.7077891,12.264953 4.368355,12.594796 3.9612232,12.353433 3.5426324,12.13254 l 0.1037389,-0.461791 0.080731,-0.466363 0.471246,-0.04404 0.4684851,-0.06733 0.1875072,0.434573 0.2088089,0.424748 z"
       inkscape:transform-center-x="-1.5935259"
       inkscape:transform-center-y="0.023567576"
       transform="matrix(20.791267,0,0,21.031541,-36.40969,-292.50008)" />
  </g>
  <g
     inkscape:groupmode="layer"
     id="layer3"
     inkscape:label="Layer 3"
     style="display:inline"
     transform="translate(-0.42177737,241.30848)" />
  <g
     inkscape:groupmode="layer"
     id="layer4"
     inkscape:label="Layer 4"
     style="display:inline"
     transform="translate(-0.42177737,241.30848)" />
  <g
     inkscape:groupmode="layer"
     id="layer1"
     inkscape:label="Layer 1"
     style="display:inline"
     transform="translate(-0.42177737,241.30848)">
    <path
       sodipodi:type="star"
       style="opacity:1;fill:#4d4d4d;fill-opacity:1;stroke:none;stroke-linejoin:round;stroke-opacity:0.25531915"
       id="path8132"
       sodipodi:sides="5"
       sodipodi:cx="4.2736144"
       sodipodi:cy="11.795413"
       sodipodi:r1="0.63951153"
       sodipodi:r2="0.80497766"
       sodipodi:arg1="0.82451095"
       sodipodi:arg2="1.4528295"
       inkscape:flatsided="false"
       inkscape:rounded="0"
       inkscape:randomized="0"
       d="M 4.7077891,12.264953 4.368355,12.594796 3.9612232,12.353433 3.5426324,12.13254 l 0.1037389,-0.461791 0.080731,-0.466363 0.471246,-0.04404 0.4684851,-0.06733 0.1875072,0.434573 0.2088089,0.424748 z"
       inkscape:transform-center-x="-1.5935258"
       inkscape:transform-center-y="0.023569838"
       transform="matrix(20.791267,0,0,21.031541,-29.048123,-291.04789)" />
    <path
       style="fill:#426973;fill-opacity:1"
       d="m 73.597239,-223.05138 -47.549941,48.47633 c -0.642746,16.12061 -0.179972,32.25522 -0.1862,48.38212 l 23.937977,23.64929 95.379315,0 0,24.120379 71.34818,0.470978 -0.23366,48.240736 -71.30161,0 0,24.120441 71.16192,0 0,0.28263 0.27963,-0.28263 0.0902,0 0,-0.0945 23.84509,-24.026482 0,-144.722262 -23.84483,0 0,72.36117 -47.68967,0 0,-72.36117 -23.65854,-0.47109 0,48.24079 c -31.85513,0.11704 -63.710996,0.0316 -95.565606,0.28267 l 0,-41.22138 28.967741,-30.95136 66.411575,0 0,-24.12039 -71.301628,0 -0.09321,-0.37689 z"
       id="path134"
       inkscape:connector-curvature="0" />
  </g>
</svg>
